<mxfile host="app.diagrams.net" modified="2024-04-14T17:08:54.006Z" agent="Mozilla/5.0 (Windows NT 10.0; Win64; x64) AppleWebKit/537.36 (KHTML, like Gecko) Chrome/123.0.0.0 Safari/537.36" etag="Fx9lezb7D9MI_ZztqBii" version="24.2.1" type="device" pages="2">
  <diagram name="Page-1" id="smsCdO3SsLLpNOTszsHn">
    <mxGraphModel dx="1194" dy="589" grid="0" gridSize="10" guides="1" tooltips="1" connect="1" arrows="1" fold="1" page="0" pageScale="1" pageWidth="827" pageHeight="1169" math="0" shadow="0">
      <root>
        <mxCell id="0" />
        <mxCell id="1" parent="0" />
        <mxCell id="77yfoZm09KzwHDxtOOdd-5" value="Frame" style="swimlane;fontStyle=0;align=center;verticalAlign=top;childLayout=stackLayout;horizontal=1;startSize=23;horizontalStack=0;resizeParent=1;resizeParentMax=0;resizeLast=0;collapsible=1;marginBottom=0;whiteSpace=wrap;html=1;labelBorderColor=none;" vertex="1" parent="1">
          <mxGeometry x="-208" y="109" width="322" height="511" as="geometry" />
        </mxCell>
        <mxCell id="77yfoZm09KzwHDxtOOdd-7" value="" style="line;strokeWidth=1;fillColor=none;align=left;verticalAlign=middle;spacingTop=-1;spacingLeft=3;spacingRight=3;rotatable=0;labelPosition=right;points=[];portConstraint=eastwest;strokeColor=inherit;" vertex="1" parent="77yfoZm09KzwHDxtOOdd-5">
          <mxGeometry y="23" width="322" height="8" as="geometry" />
        </mxCell>
        <mxCell id="77yfoZm09KzwHDxtOOdd-6" value="- __right_knee_angle: float&lt;br&gt;- __left_knee_angle: float&amp;nbsp;&lt;br&gt;- __hip_position: np.ndarray&lt;br&gt;- __pre_processed: np.ndarray&lt;div&gt;- __foot_positions: tuple&lt;/div&gt;&lt;div&gt;- __right_arm_angle: float&lt;/div&gt;&lt;div&gt;- __rleft_arm_angle: float&lt;br&gt;- _data: np.ndarray&lt;br&gt;&lt;/div&gt;&lt;div&gt;+ dims: tuple&lt;/div&gt;" style="text;strokeColor=none;fillColor=none;align=left;verticalAlign=top;spacingLeft=4;spacingRight=4;overflow=hidden;rotatable=0;points=[[0,0.5],[1,0.5]];portConstraint=eastwest;whiteSpace=wrap;html=1;" vertex="1" parent="77yfoZm09KzwHDxtOOdd-5">
          <mxGeometry y="31" width="322" height="158" as="geometry" />
        </mxCell>
        <mxCell id="77yfoZm09KzwHDxtOOdd-8" value="+ __init__(frame: np.ndarray=None)&lt;br&gt;+ update(frame: np.ndarray)&lt;br&gt;+ clear()&lt;br&gt;- __calc_knee_angle(key_points: tuple) -&amp;gt; float&lt;br&gt;+ annotate(pose_landmarks, as_overlay=True)&lt;br&gt;+ pre_process(filter: Filter=None, inplace=False)&lt;br&gt;+ to_mediapipe_image() -&amp;gt; mp.Image&lt;br&gt;+ to_rgb() -&amp;gt; np.ndarray&lt;br&gt;+ to_grayscale() -&amp;gt; np.ndarray&lt;br&gt;+ sharp_motion(prev_frame: np.ndarray)&lt;br&gt;+ bilateral_filter(output_result=False)&lt;br&gt;+ apply_filter(kernel=[], inplace=False) -&amp;gt; np.ndarray&amp;nbsp;&lt;br&gt;+ stabilize(prev_frame: np.ndarray)&lt;br&gt;+ data() -&amp;gt; np.ndarray&lt;br&gt;+ knee_angles() -&amp;gt; np.ndarray&amp;nbsp;&lt;br&gt;+ foot_pos() -&amp;gt; np.ndarray&lt;div&gt;+ centroid_height() -&amp;gt; float&lt;br&gt;+ hip_pos() -&amp;gt; np.ndarray&lt;/div&gt;" style="text;strokeColor=none;fillColor=none;align=left;verticalAlign=top;spacingLeft=4;spacingRight=4;overflow=hidden;rotatable=0;points=[[0,0.5],[1,0.5]];portConstraint=eastwest;whiteSpace=wrap;html=1;labelBackgroundColor=none;fontStyle=0" vertex="1" parent="77yfoZm09KzwHDxtOOdd-5">
          <mxGeometry y="189" width="322" height="322" as="geometry" />
        </mxCell>
        <mxCell id="77yfoZm09KzwHDxtOOdd-10" value="" style="endArrow=none;html=1;rounded=0;fontSize=12;startSize=8;endSize=8;curved=1;entryX=1.013;entryY=0.989;entryDx=0;entryDy=0;entryPerimeter=0;" edge="1" parent="77yfoZm09KzwHDxtOOdd-5">
          <mxGeometry width="50" height="50" relative="1" as="geometry">
            <mxPoint y="190" as="sourcePoint" />
            <mxPoint x="322.1859999999999" y="190.26199999999994" as="targetPoint" />
          </mxGeometry>
        </mxCell>
      </root>
    </mxGraphModel>
  </diagram>
  <diagram id="3KiWvzZeeX7Lhky9Gl6n" name="Page-2">
    <mxGraphModel dx="1444" dy="1471" grid="0" gridSize="10" guides="1" tooltips="1" connect="1" arrows="1" fold="1" page="0" pageScale="1" pageWidth="827" pageHeight="1169" math="0" shadow="0">
      <root>
        <mxCell id="0" />
        <mxCell id="1" parent="0" />
        <mxCell id="b_Ll2Un-yt6ktXD4V6w--5" value="Video" style="swimlane;fontStyle=1;align=center;verticalAlign=top;childLayout=stackLayout;horizontal=1;startSize=28;horizontalStack=0;resizeParent=1;resizeParentMax=0;resizeLast=0;collapsible=1;marginBottom=0;whiteSpace=wrap;html=1;" vertex="1" parent="1">
          <mxGeometry x="101" y="-96" width="437" height="978" as="geometry" />
        </mxCell>
        <mxCell id="b_Ll2Un-yt6ktXD4V6w--6" value="- signals: VideoSignals&lt;br&gt;- control_signals: ControlSignals&lt;br&gt;- __frame_count: int&lt;br&gt;- __frame_rate: int&lt;br&gt;- dims: Tuple[int, int, int]&lt;br&gt;- __stop_flag: bool&lt;br&gt;- __current_frame: Frame&lt;br&gt;- __cap: cv2.VideoCapture&lt;br&gt;- __path: str&lt;br&gt;-&amp;nbsp; __output_path: str&lt;br&gt;- __detector: PoseDetector&lt;br&gt;- __marker_overlay: bool&lt;br&gt;- __save_filter_output: bool&lt;br&gt;- __show_velocity_vectors: bool&lt;br&gt;- __frame_buffer: FrameBuffer&lt;br&gt;- __video_completed: threading.Event&lt;br&gt;- abort: SharedBool&lt;br&gt;- __filter: Filter&lt;br&gt;- __playback: bool" style="text;strokeColor=none;fillColor=none;align=left;verticalAlign=top;spacingLeft=4;spacingRight=4;overflow=hidden;rotatable=0;points=[[0,0.5],[1,0.5]];portConstraint=eastwest;whiteSpace=wrap;html=1;" vertex="1" parent="b_Ll2Un-yt6ktXD4V6w--5">
          <mxGeometry y="28" width="437" height="291" as="geometry" />
        </mxCell>
        <mxCell id="b_Ll2Un-yt6ktXD4V6w--7" value="" style="line;strokeWidth=1;fillColor=none;align=left;verticalAlign=middle;spacingTop=-1;spacingLeft=3;spacingRight=3;rotatable=0;labelPosition=right;points=[];portConstraint=eastwest;strokeColor=inherit;" vertex="1" parent="b_Ll2Un-yt6ktXD4V6w--5">
          <mxGeometry y="319" width="437" height="8" as="geometry" />
        </mxCell>
        <mxCell id="b_Ll2Un-yt6ktXD4V6w--8" value="+ __init__(path: str, abort: SharedBool)&lt;br&gt;+ terminate()&lt;br&gt;+ set_analysis_overlay(as_overlay: bool)&lt;br&gt;+ set_filter_output(output: bool)&lt;br&gt;+ set_velocity_vectors(show_vectors:bool)&lt;br&gt;+ export_frame(path: str)&lt;br&gt;+ __ground_contact(prev_foot_pos, curr_foot_pos)&lt;br&gt;+ __open(path: str)&amp;nbsp; &amp;nbsp; &amp;nbsp; &amp;nbsp;&amp;nbsp;&lt;br&gt;+ play(frame_index: int)&amp;nbsp; &amp;nbsp; &amp;nbsp; &amp;nbsp; &amp;nbsp; &amp;nbsp; &amp;nbsp; &amp;nbsp;&amp;nbsp;&lt;br&gt;+ rewind()&amp;nbsp; &amp;nbsp; &amp;nbsp; &amp;nbsp; &amp;nbsp; &amp;nbsp; &amp;nbsp; &amp;nbsp; &amp;nbsp; &amp;nbsp; &amp;nbsp; &amp;nbsp; &amp;nbsp; &amp;nbsp; &amp;nbsp;&amp;nbsp;&lt;br&gt;+ forward()&amp;nbsp; &amp;nbsp; &amp;nbsp; &amp;nbsp; &amp;nbsp; &amp;nbsp; &amp;nbsp; &amp;nbsp; &amp;nbsp; &amp;nbsp; &amp;nbsp; &amp;nbsp; &amp;nbsp; &amp;nbsp; &amp;nbsp;&lt;br&gt;+ toggle()&amp;nbsp; &amp;nbsp; &amp;nbsp; &amp;nbsp; &amp;nbsp; &amp;nbsp; &amp;nbsp; &amp;nbsp; &amp;nbsp; &amp;nbsp; &amp;nbsp; &amp;nbsp; &amp;nbsp; &amp;nbsp; &amp;nbsp;&amp;nbsp;&lt;br&gt;+ pause()&amp;nbsp; &amp;nbsp; &amp;nbsp; &amp;nbsp; &amp;nbsp; &amp;nbsp; &amp;nbsp; &amp;nbsp; &amp;nbsp; &amp;nbsp; &amp;nbsp; &amp;nbsp; &amp;nbsp; &amp;nbsp; &amp;nbsp; &amp;nbsp;&lt;br&gt;+ stop()&amp;nbsp; &amp;nbsp; &amp;nbsp; &amp;nbsp; &amp;nbsp; &amp;nbsp; &amp;nbsp; &amp;nbsp; &amp;nbsp; &amp;nbsp; &amp;nbsp; &amp;nbsp; &amp;nbsp; &amp;nbsp; &amp;nbsp; &amp;nbsp;&amp;nbsp;&lt;br&gt;+ jump_to_frame(frame: int)&amp;nbsp; &amp;nbsp; &amp;nbsp; &amp;nbsp; &amp;nbsp; &amp;nbsp;&amp;nbsp;&lt;br&gt;+ __read_video_file()&amp;nbsp; &amp;nbsp; &amp;nbsp; &amp;nbsp; &amp;nbsp; &amp;nbsp; &amp;nbsp; &amp;nbsp; &amp;nbsp; &amp;nbsp;&lt;br&gt;+ set_filter(filter: Filter)&amp;nbsp; &amp;nbsp; &amp;nbsp; &amp;nbsp; &amp;nbsp; &amp;nbsp;&amp;nbsp;&lt;br&gt;+ set_eval_type(eval_type: EvalType)&amp;nbsp;&amp;nbsp;&lt;br&gt;+ __perform_pose_detection()&amp;nbsp; &amp;nbsp; &amp;nbsp; &amp;nbsp; &amp;nbsp; &amp;nbsp;&amp;nbsp;&lt;br&gt;+ update_progress(current_progress: int)&lt;br&gt;+ run()&amp;nbsp; &amp;nbsp; &amp;nbsp; &amp;nbsp; &amp;nbsp; &amp;nbsp; &amp;nbsp; &amp;nbsp; &amp;nbsp; &amp;nbsp; &amp;nbsp; &amp;nbsp; &amp;nbsp; &amp;nbsp; &amp;nbsp; &amp;nbsp; &amp;nbsp;&lt;br&gt;+ get_filename() -&amp;gt; str&amp;nbsp; &amp;nbsp; &amp;nbsp; &amp;nbsp; &amp;nbsp; &amp;nbsp; &amp;nbsp; &amp;nbsp; &amp;nbsp;&lt;br&gt;+ get_path() -&amp;gt; str&amp;nbsp; &amp;nbsp; &amp;nbsp; &amp;nbsp; &amp;nbsp; &amp;nbsp; &amp;nbsp; &amp;nbsp; &amp;nbsp; &amp;nbsp; &amp;nbsp;&lt;br&gt;+ get_base_path() -&amp;gt; str&amp;nbsp; &amp;nbsp; &amp;nbsp; &amp;nbsp; &amp;nbsp; &amp;nbsp; &amp;nbsp; &amp;nbsp;&amp;nbsp;&lt;br&gt;+ get_analysis_path() -&amp;gt; str&amp;nbsp; &amp;nbsp; &amp;nbsp; &amp;nbsp; &amp;nbsp; &amp;nbsp;&amp;nbsp;&lt;br&gt;+ get_output_path() -&amp;gt; str&amp;nbsp; &amp;nbsp; &amp;nbsp; &amp;nbsp; &amp;nbsp; &amp;nbsp; &amp;nbsp;&amp;nbsp;&lt;br&gt;+ show_vector(start_point: np.ndarray,&lt;br&gt;&amp;nbsp; &amp;nbsp; &amp;nbsp; &amp;nbsp; &amp;nbsp; &amp;nbsp; &amp;nbsp; vec: np.ndarray,&amp;nbsp; &amp;nbsp; &amp;nbsp; &amp;nbsp; &amp;nbsp;&amp;nbsp;&lt;br&gt;&amp;nbsp; &amp;nbsp; &amp;nbsp; &amp;nbsp; &amp;nbsp; &amp;nbsp; &amp;nbsp; color: tuple,&amp;nbsp; &amp;nbsp; &amp;nbsp; &amp;nbsp; &amp;nbsp; &amp;nbsp; &amp;nbsp;&lt;br&gt;&amp;nbsp; &amp;nbsp; &amp;nbsp; &amp;nbsp; &amp;nbsp; &amp;nbsp; &amp;nbsp; scale: float)&amp;nbsp; &amp;nbsp; &amp;nbsp; &amp;nbsp; &amp;nbsp; &amp;nbsp; &amp;nbsp;&lt;br&gt;+ show_hip_vector(frame_index: int,&amp;nbsp; &amp;nbsp;&amp;nbsp;&lt;br&gt;&amp;nbsp; &amp;nbsp; &amp;nbsp; &amp;nbsp; &amp;nbsp; &amp;nbsp; &amp;nbsp; &amp;nbsp; &amp;nbsp; vector: np.ndarray,&amp;nbsp; &amp;nbsp;&lt;br&gt;&amp;nbsp; &amp;nbsp; &amp;nbsp; &amp;nbsp; &amp;nbsp; &amp;nbsp; &amp;nbsp; &amp;nbsp; &amp;nbsp; color: tuple)&amp;nbsp; &amp;nbsp; &amp;nbsp; &amp;nbsp; &amp;nbsp;&lt;br&gt;+ angle(vec1: np.ndarray, vec2: np.ndarray) -&amp;gt; float&lt;br&gt;+ takeoff_angle(hip_pos: np.ndarray,&amp;nbsp; &amp;nbsp;&lt;br&gt;&amp;nbsp; &amp;nbsp; &amp;nbsp; &amp;nbsp; &amp;nbsp; &amp;nbsp; &amp;nbsp; &amp;nbsp; takeoff_index: int) -&amp;gt; float&lt;br&gt;+ regressions(hip_height: np.ndarray,&amp;nbsp;&amp;nbsp;&lt;br&gt;&amp;nbsp; &amp;nbsp; &amp;nbsp; &amp;nbsp; &amp;nbsp; &amp;nbsp; &amp;nbsp; knee_angles: np.ndarray,&amp;nbsp;&lt;br&gt;&amp;nbsp; &amp;nbsp; &amp;nbsp; &amp;nbsp; &amp;nbsp; &amp;nbsp; &amp;nbsp; full: bool) -&amp;gt; Tuple[int, int] or Tuple[int, np.ndarray]&lt;br&gt;+ takeoff_frame(hip_height: np.ndarray,&lt;div&gt;&amp;nbsp; &amp;nbsp; &amp;nbsp; &amp;nbsp; &amp;nbsp; &amp;nbsp; &amp;nbsp; &amp;nbsp; knee_angles: np.ndarray,&lt;br&gt;&amp;nbsp; &amp;nbsp; &amp;nbsp; &amp;nbsp; &amp;nbsp; &amp;nbsp; &amp;nbsp; &amp;nbsp; full: bool) -&amp;gt; Tuple[int, int] or int&lt;br&gt;+ set_control_signals(control_signals: ControlSignals)&lt;/div&gt;" style="text;strokeColor=none;fillColor=none;align=left;verticalAlign=top;spacingLeft=4;spacingRight=4;overflow=hidden;rotatable=0;points=[[0,0.5],[1,0.5]];portConstraint=eastwest;whiteSpace=wrap;html=1;" vertex="1" parent="b_Ll2Un-yt6ktXD4V6w--5">
          <mxGeometry y="327" width="437" height="651" as="geometry" />
        </mxCell>
      </root>
    </mxGraphModel>
  </diagram>
</mxfile>
